#!OML:ASF F:\VICON\USERDATA\INSTALL\Justin_Nancy\Justin_Nancy.ASF
:FULLY-SPECIFIED
:DEGREES
65
root -9.07822 16.9512 -15.0082 -2.75529 -10.5819 1.69616
lowerback 7.67435 1.7303 -2.73722
upperback 0.395554 2.12033 1.36364
thorax -4.0461 1.11375 2.71736
lowerneck -14.9899 -2.66699 -10.1022
upperneck 22.9244 -2.39301 4.95063
head 9.95364 -1.43013 3.12798
rclavicle -5.75233e-015 5.56597e-015
rhumerus -30.189 -7.24163 -81.9589
rradius 49.21
rwrist -4.42518
rhand -19.5592 11.0677
rfingers 7.12502
rthumb 6.7654 -18.8042
lclavicle -5.75233e-015 5.56597e-015
lhumerus -42.2976 15.404 80.4014
lradius 19.025
lwrist -15.451
lhand -12.518 26.5
lfingers 7.12502
lthumb 13.5578 56.0386
rfemur -5.3301 3.11303 16.2755
rtibia 69.4013
rfoot 1.68312 -3.90925
rtoes 2.8122
lfemur -26.2244 -2.12567 -23.8231
ltibia 39.0318
lfoot -7.47132 -1.4734
ltoes 1.72301
66
root -9.07481 16.9757 -14.7773 -2.81656 -10.1614 1.75818
lowerback 7.83797 1.58935 -2.69869
upperback 0.380465 1.92976 1.31255
thorax -4.13717 1.01936 2.66052
lowerneck -14.9957 -2.69487 -10.0297
upperneck 23.0132 -2.41926 4.81994
head 9.98681 -1.45257 3.06711
rclavicle 3.48991e-014 -9.54166e-015
rhumerus -30.4858 -7.34288 -82.0945
rradius 48.5549
rwrist -4.15006
rhand -18.791 11.3305
rfingers 7.12502
rthumb 7.50686 -18.5163
lclavicle 3.48991e-014 -9.54166e-015
lhumerus -41.4721 13.9558 81.361
lradius 19.2762
lwrist -13.8217
lhand -13.4413 26.1347
lfingers 7.12502
lthumb 12.6678 55.7306
rfemur -7.31887 2.33632 16.0122
rtibia 70.7165
rfoot 1.37871 -4.61921
rtoes 11.3085
lfemur -25.2872 -2.72301 -24.1611
ltibia 39.0497
lfoot -8.23272 -1.20957
ltoes 2.09516
67
root -9.06765 17.0009 -14.5408 -2.91563 -9.84809 1.96998
lowerback 7.93985 1.47273 -2.78277
upperback 0.310282 1.76083 1.23371
thorax -4.25595 0.939039 2.64275
lowerneck -14.7637 -2.62182 -9.93835
upperneck 23.0924 -2.34347 4.72453
head 9.96219 -1.42466 3.0296
rclavicle 3.26877e-014 1.59028e-015
rhumerus -31.0648 -7.32874 -82.1948
rradius 48.0882
rwrist -3.65747
rhand -18.0239 11.2357
rfingers 7.12502
rthumb 8.24724 -18.5834
lclavicle 3.26877e-014 1.59028e-015
lhumerus -41.0931 12.8555 82.0399
lradius 20.0104
lwrist -12.5613
lhand -13.9013 26.2548
lfingers 7.12502
lthumb 12.2243 55.8775
rfemur -9.26798 1.59511 15.5812
rtibia 71.6912
rfoot -0.166977 -5.6407
rtoes 10.951
lfemur -24.2957 -3.17608 -24.6796
ltibia 39.0928
lfoot -8.97425 -0.796569
ltoes 2.36924
68
root -9.05853 17.0199 -14.295 -2.99277 -9.74554 2.14896
lowerback 7.79375 1.44244 -2.82877
upperback 0.39709 1.7189 1.19699
thorax -4.08093 0.915146 2.6393
lowerneck -14.8368 -2.57588 -9.91738
upperneck 23.2489 -2.26582 4.67327
head 10.025 -1.39506 3.02049
rclavicle -2.02512e-014 4.37326e-015
rhumerus -31.4063 -7.54695 -82.1767
rradius 47.6372
rwrist -2.90211
rhand -17.3904 11.1665
rfingers 7.12502
rthumb 8.85865 -18.6276
lclavicle -2.02512e-014 4.37326e-015
lhumerus -40.6452 12.3405 82.4107
lradius 20.9512
lwrist -12.5136
lhand -13.4716 27.0477
lfingers 7.12502
lthumb 12.6385 56.6453
rfemur -11.257 1.05348 15.2002
rtibia 72.3633
rfoot -1.46859 -6.72322
rtoes 9.72823
lfemur -23.2819 -3.3799 -25.1548
ltibia 39.1029
lfoot -9.73954 -0.472396
ltoes 3.40782
69
root -9.05526 17.0308 -14.056 -3.12026 -9.79017 2.19396
lowerback 7.75117 1.42067 -2.87662
upperback 0.511447 1.69113 1.29347
thorax -3.94062 0.899473 2.77197
lowerneck -14.8545 -2.51442 -10.0103
upperneck 23.3524 -2.12353 4.55096
head 10.055 -1.35351 3.01271
rclavicle -4.88265e-015 -9.54166e-015
rhumerus -31.7244 -7.69384 -82.0689
rradius 47.1898
rwrist -2.17367
rhand -16.8806 11.35
rfingers 7.12502
rthumb 9.35053 -18.4226
lclavicle -4.88265e-015 -9.54166e-015
lhumerus -40.2636 12.3155 82.6773
lradius 21.9078
lwrist -12.5068
lhand -13.3063 27.7956
lfingers 7.12502
lthumb 12.7979 57.3833
rfemur -13.126 0.710532 15.0689
rtibia 72.749
rfoot -2.83632 -7.71283
rtoes 7.55337
lfemur -22.1765 -3.4097 -25.4437
ltibia 39.0355
lfoot -10.4897 -0.254881
ltoes 3.98422
70
root -9.05238 17.0508 -13.8213 -3.24571 -9.88219 2.4306
lowerback 7.88118 1.43656 -3.12073
upperback 0.479953 1.68748 1.30396
thorax -4.05362 0.904316 2.91819
lowerneck -14.685 -2.44808 -10.0327
upperneck 23.377 -2.02305 4.4694
head 10.0233 -1.32073 3.00114
rclavicle -2.57053e-014 1.59028e-015
rhumerus -32.4159 -7.84454 -81.9328
rradius 46.757
rwrist -1.543
rhand -16.5979 12.8997
rfingers 7.12502
rthumb 9.62335 -16.8605
lclavicle -2.57053e-014 1.59028e-015
lhumerus -40.0541 12.0947 82.8802
lradius 22.7957
lwrist -11.7114
lhand -13.9344 27.1491
lfingers 7.12502
lthumb 12.1924 56.7738
rfemur -14.9009 0.430662 14.7403
rtibia 72.8272
rfoot -4.33308 -8.47036
rtoes 6.46065
lfemur -21.0813 -3.30263 -25.9271
ltibia 38.9337
lfoot -11.3057 -0.0418896
ltoes 4.58346
71
root -9.05077 17.0675 -13.5804 -3.3528 -9.99045 2.9052
lowerback 7.77826 1.49825 -3.52292
upperback 0.516713 1.73295 1.19007
thorax -3.96975 0.931119 3.02357
lowerneck -14.5626 -2.44686 -10.1313
upperneck 23.3104 -2.03104 4.55662
head 9.97865 -1.32294 3.04687
rclavicle 2.54693e-015 3.97569e-015
rhumerus -32.9684 -8.02988 -81.8584
rradius 46.369
rwrist -0.926632
rhand -16.6679 13.7367
rfingers 7.12502
rthumb 9.55576 -16.0267
lclavicle 2.54693e-015 3.97569e-015
lhumerus -39.7972 11.9307 82.8823
lradius 23.5444
lwrist -11.1367
lhand -14.4069 24.7619
lfingers 7.12502
lthumb 11.7367 54.4131
rfemur -16.6375 0.224783 14.1509
rtibia 72.6504
rfoot -5.85807 -8.96108
rtoes 6.16514
lfemur -20.0588 -3.17519 -26.6673
ltibia 38.8417
lfoot -12.1032 0.00352684
ltoes 5.98924
